<svg xmlns="http://www.w3.org/2000/svg" viewBox="0 0 64 64"><g data-name="laughing"><path d="M61.423,41.123c-.814-1.139-1.686-2.236-2.5-3.374-.423-.591-.552-1.032.451-1.275,2.088-.506,2.367-1.11,1.628-3.095a44.338,44.338,0,0,0-4.219-7.828,4.8,4.8,0,0,1-.313-5.237,14.856,14.856,0,0,0,1.377-10.278c-.4-2.146-.914-4.272-1.444-6.39-.595-2.377-1.7-2.668-3.524-.947C50.349,5.078,47.789,7.431,45.354,9.9a4.79,4.79,0,0,1-4.683,1.55,44.136,44.136,0,0,0-17.358,0,4.809,4.809,0,0,1-4.681-1.563C16.2,7.418,13.64,5.063,11.11,2.684c-1.81-1.7-2.929-1.393-3.52.98C7.076,5.729,6.583,7.8,6.176,9.89c-.636,3.259-.668,6.565.948,9.519A6.092,6.092,0,0,1,6.7,26.44a30.96,30.96,0,0,0-3.821,7.272c-.548,1.6-.154,2.463,1.436,2.708,1.472.226,1.171.818.575,1.626-.8,1.081-1.632,2.137-2.413,3.231a1.551,1.551,0,0,0-.257,1.867c.4.605,1.029.6,1.658.542.279-.025.556-.087.834-.093.318-.007.712-.147.913.2s-.119.622-.295.891c-.491.749-1.036,1.466-1.487,2.239-1.516,2.6-1.228,3.32,1.686,4.074-.27.32-.5.611-.751.888-1.184,1.327-1.042,2.33.652,2.923a106.814,106.814,0,0,0,14.935,4.552c3.726.72,7.6.867,10.988,2.867a1.477,1.477,0,0,0,1.592-.15,14.349,14.349,0,0,1,5.88-1.9c6.344-.75,12.329-2.809,18.332-4.823,3.331-1.117,3.464-1.535,1.43-4.231-.024-.032,0-.1.007-.155,2.8-.74,3.073-1.43,1.558-4.052-.335-.581-.753-1.114-1.091-1.694-.268-.459-.984-.862-.645-1.42.324-.533,1.025-.16,1.558-.128.681.041,1.383.141,1.814-.545C62.264,42.374,61.849,41.719,61.423,41.123ZM41.725,57.8a28.555,28.555,0,0,0-8.973,2.094,2.01,2.01,0,0,1-1.611-.048A42.4,42.4,0,0,0,22,57.694a8.439,8.439,0,0,1-6.628-9.923c.73-3.346,3.208-4.838,6.109-5.876a24.515,24.515,0,0,1,5.454-.947,1.229,1.229,0,0,1,1.4.648,3.037,3.037,0,0,0,1.726,1.525c.848.265.674.9.659,1.5-.019.767-.541.878-1.15.9-2.016.073-4.034.127-6.049.238-2.3.126-2.827.862-2.341,3.15,1.092,5.146,5.311,8.39,10.879,8.365,5.7-.026,9.944-3.461,10.861-8.8.3-1.772-.246-2.558-2.039-2.682-2.068-.144-4.144-.173-6.215-.267-.6-.028-1.3.052-1.373-.851-.056-.683-.15-1.345.765-1.6A1.583,1.583,0,0,0,35,42.414c.857-1.821,2.345-1.479,3.861-1.272a16.611,16.611,0,0,1,5.776,1.667,7.49,7.49,0,0,1,3.137,10.605C46.446,55.751,44.822,57.61,41.725,57.8Zm-2.158-8.535c-2.569-.013-5.138-.005-7.706-.005-2.457,0-4.915,0-7.372,0-.7,0-1.453.019-1.448-.934,0-1,.867-.665,1.4-.7a114.255,114.255,0,0,1,15.236,0c.5.032,1.26-.221,1.29.644C41,49.2,40.3,49.268,39.567,49.265Zm-.609,3.35c-3.583,3.731-10.473,3.7-13.97-.063-.29-.312-.789-.607-.556-1.112.188-.407.693-.273,1.065-.276,2.183-.014,4.367-.007,6.55-.007V51.15c2.128,0,4.256-.014,6.383.014.405,0,.995-.2,1.167.355C39.749,52.006,39.257,52.3,38.958,52.615ZM31.922,41.746c-1.074-.042-2.088-.545-1.994-1.8.1-1.377,1.3-1.293,2.272-1.331,1.008.071,1.957.294,1.876,1.481C33.993,41.326,33.005,41.788,31.922,41.746Zm26.563-.219c-2.947.293-3.412,1.261-1.764,3.7.564.836,1.162,1.649,1.7,2.5.446.7.231,1.037-.614.949a6.073,6.073,0,0,0-1.172-.058c-1.418.129-1.848,1.021-1.068,2.182a5.824,5.824,0,0,0,.425.521c1.624,1.906,1.625,1.908-.872,2.7q-3.042.961-6.089,1.9c-.08.025-.2-.072-.368-.141a19.743,19.743,0,0,0,1.707-3.8,9.174,9.174,0,0,0-4.574-10.7,18.855,18.855,0,0,0-7.885-2.128,3.67,3.67,0,0,1-2.756-1.281,4.488,4.488,0,0,0-6.229-.075,4.149,4.149,0,0,1-3.063,1.381A18.481,18.481,0,0,0,18.3,41.221,9.448,9.448,0,0,0,14.56,54.37c.259.471.53.936,1.057,1.865-3.151-1.04-5.843-1.919-8.526-2.824-.681-.23-.458-.631-.1-1.01.385-.408.78-.807,1.143-1.232.437-.511.948-1.04.59-1.788-.341-.714-1.035-.753-1.728-.782-.532-.023-1.262.428-1.55-.137-.3-.594.374-1.105.692-1.608.507-.8,1.131-1.541,1.6-2.367.987-1.751.434-2.731-1.574-2.937-.363-.037-.862.182-1.049-.266-.176-.422.283-.682.487-1a22.3,22.3,0,0,0,1.628-2.537c.721-1.541.216-2.645-1.448-3.024-1.114-.253-1.028-.722-.672-1.519A45.558,45.558,0,0,1,8.625,26.9a7,7,0,0,0,.288-8.033,10.684,10.684,0,0,1-1.074-7.033C8.217,9.252,8.874,6.71,9.467,3.876c2.588,2.2,4.849,4.261,6.986,6.464a11.435,11.435,0,0,0,4.113,3.115c1.2.446,1.388,1.36.691,2.439a3.145,3.145,0,0,0,.37,3.888c.311.416.728.77,1.289.477a.853.853,0,0,0,.3-1.306,2.414,2.414,0,0,1,.138-2.948,1.2,1.2,0,0,0,.228-.793c-.467-2.344,1.257-2.1,2.633-2.252,1.166-.128,1.537.449.9,1.369a3.169,3.169,0,0,0-.071,4.029,1.7,1.7,0,0,1,.215.955c-.007.581-.078,1.224.687,1.3.836.078,1.141-.575,1.314-1.262a.926.926,0,0,0,0-.656c-1.185-1.622-.483-3.1.007-4.783.344-1.18.714-1.46,1.747-1.32a3.137,3.137,0,0,0,.336.017c2.946.074,3.624.634,4.295,3.487.151.642-.247,1.057-.51,1.537a2.191,2.191,0,0,0-.14,2.381,1.05,1.05,0,0,0,1.1.611.8.8,0,0,0,.647-1.01,2.389,2.389,0,0,1,.469-1.734,2.624,2.624,0,0,0-.095-3.14c-.3-.454-.767-.949-.356-1.518.4-.553,1.038-.245,1.569-.2,1.241.112,2.285.111,2.172,2.067-.081,1.4,1.247,2.829.155,4.39-.171.244.093.654.437.807a.954.954,0,0,0,1.069-.256,3.245,3.245,0,0,0,.635-3.991c-.781-1.376-.455-2.212.961-2.738a8.407,8.407,0,0,0,2.862-2.014q3.264-3.152,6.57-6.261c.352-.332.63-.811,1.332-.812.961,4.267,2.594,8.468,1.228,12.983a8.382,8.382,0,0,1-.812,2.016,6.363,6.363,0,0,0,.118,7.137,59.679,59.679,0,0,1,3.852,6.89c.376.842.354,1.252-.714,1.494-1.684.382-2.18,1.587-1.341,3.2.609,1.168,1.428,2.224,2.188,3.383A2.736,2.736,0,0,1,58.485,41.527Z"/><path d="M22.873 28.6c-.034-.571-.154-1.2-.859-1.227-.818-.037-.982.647-.994 1.271-.019 1.053.022 2.109.095 3.16.044.627.219 1.321 1.035 1.227.793-.092.792-.808.8-1.432.007-.444 0-.888 0-1.332H22.88C22.88 29.713 22.905 29.156 22.873 28.6zM42.089 27.4c-1.119-.016-.922 1.019-.981 1.761-.026.331 0 .666 0 1h-.05c0 .555-.009 1.11 0 1.664.013.593.152 1.187.852 1.217s.912-.556.959-1.139c.078-.939.143-1.882.134-2.823C43 28.382 43.059 27.417 42.089 27.4z"/></g></svg>