<svg xmlns="http://www.w3.org/2000/svg" width="100" height="100" viewBox="0 0 100 100"><g fill="#000" fill-rule="evenodd" transform="translate(-750 -450)"><g transform="translate(757.824 463)"><path d="M7.26808141,47.056639 C9.9018028,46.2243727 13.1107941,46.1453363 17.1878813,47.2455946 C17.1878813,51.675814 16.3673135,55.2385131 14.9238462,58.0817708 C14.3225162,59.2662356 13.0949111,56.182249 6.12114119,59.8059643 C6.09287842,56.7358566 9.69708657,53.3648807 9.69708657,53.3648807 C9.69708657,53.3648807 4.82914653,53.060896 2.19183775,56.4411197 C1.75716985,53.4533941 5.6172007,47.5783238 7.26808141,47.056639 Z" transform="scale(-1 1) rotate(-20 0 107.974)"/><path d="M45.8904619,81.2136931 C47.289742,80.6990565 49.4956417,79.3232233 50.2253433,77.4050275 C51.5184599,74.0057605 50.2825976,69.4413299 49.1200076,69.2268153 C46.8231083,68.8030043 42.8552502,72.3240207 41.8225822,75.3827704 C40.4929746,79.3210516 42.0114941,82.6403258 45.8904619,81.2136931 Z" transform="rotate(25 46.064 75.371)"/><path d="M80.0876375,3.75638862 C83.6350397,10.8501953 81.7330576,20.8415859 80.2752148,26.1910483 C76.9903186,21.3863259 71.4036803,17.5452282 63.1224913,15.5628938 C66.395227,10.7812919 72.4459466,3.85689984 80.0876375,3.75638862 Z M18.4788661,3.85308986 C26.0762897,3.95301883 32.1205745,10.7604526 35.4211977,15.5140318 C27.6642599,17.2997023 22.3237345,20.658475 19.0425614,24.9525443 C17.4595659,19.5425744 15.5447995,10.2845075 18.4788661,3.85308986 Z" transform="rotate(-6 49.53 14.974)"/></g><g transform="translate(760.233 460.628)"><path d="M77.3573415,0.90356607 C79.427526,3.57762283 80.7321863,7.43351877 81.2611863,10.8385188 C82.2321863,17.0785188 81.267383,23.53424 80.877383,26.14924 C82.034383,27.63924 82.815383,28.9775188 83.499383,30.7095188 C84.198383,32.4795188 84.652383,34.3615188 84.876383,36.3255188 C85.608383,42.8405188 83.655383,49.0445188 78.475383,53.9905188 C75.457383,56.8725188 71.333383,59.3275188 65.992383,61.1485188 C62.7495046,62.2539343 59.0527342,63.1207742 54.8809436,63.713283 C53.8814642,70.2427735 52.2593737,74.9770921 50.279383,78.1865188 C47.500383,82.6925188 43.995383,84.2735188 40.475383,83.7505188 C40.475383,83.7505188 34.347383,82.8265188 34.347383,82.8265188 C31.0891852,82.3153219 28.4548301,80.7359806 26.7348154,78.5392933 C17.4304243,76.5859995 7.86075687,73.0316452 3.11238303,66.3225188 C-0.16361697,61.6935188 -1.18661697,55.5785188 1.66938303,47.4805188 C1.78338303,47.1665188 2.09338303,46.9685188 2.42538303,46.9975188 C8.41338303,47.4835188 12.054383,49.5675188 14.428383,52.4315188 C16.101383,54.4505188 17.142383,56.8665188 17.928383,59.3925188 C18.681383,61.8125188 19.199383,64.3365188 19.861383,66.7055188 C20.271383,68.1755188 20.733383,69.5845188 21.348383,70.8715188 C22.1941527,72.6415939 23.3300676,74.1737136 25.0134295,75.302737 C24.330582,73.2029372 24.2949014,70.8495232 25.033383,68.4805188 C25.7943659,66.1209109 27.3331901,64.0287405 29.2396938,62.2268853 C27.2754878,61.5357042 25.5105866,60.6988086 23.939383,59.7355188 C17.820383,55.9825188 14.594383,50.3205188 13.929383,43.7815188 C13.729383,41.8065188 13.775383,39.8625188 14.082383,37.9765188 C14.379383,36.1485188 14.919383,34.3735188 15.719383,32.6765188 C14.764383,30.1645188 12.747383,24.2275188 12.347383,17.9465188 C12.124383,14.4635188 12.797983,9.18525028 13.8062909,7.53193684 C17.9202909,6.29693684 21.956383,6.53851877 25.436383,7.75251877 C31.873383,9.99751877 36.868383,15.0655188 39.112383,17.6685188 C40.329383,17.4115188 41.595383,17.1825188 42.911383,16.9825188 C44.214383,16.7845188 45.566383,16.6145188 46.967383,16.4745188 C48.368383,16.3345188 49.726383,16.2325188 51.043383,16.1675188 C52.389383,16.1025188 53.4854041,16.0097797 54.7444041,16.0207797 C56.4064041,13.0537797 60.135383,7.04962283 65.992383,3.57762283 C69.111383,1.72862283 73.5234545,0.560942018 77.3573415,0.90356607 Z M30.3991656,62.6112175 L30.379383,62.6305188 L30.379383,62.6305188 C28.546383,64.4615188 27.017383,66.5285188 26.363383,68.8805188 C25.510383,71.8375188 26.035383,74.7215188 27.565383,76.9845188 C29.050383,79.1795188 31.485383,80.7915188 34.591383,81.2885188 C34.591383,81.2885188 40.705383,82.3035188 40.705383,82.3035188 C43.745383,82.8145188 46.730383,81.3705188 49.219383,77.5175188 C51.1785121,74.4859668 52.8227031,70.0123301 53.9376765,63.8408312 C53.2936404,63.9252017 52.6375572,64.0026245 51.970383,64.0735188 C43.1733638,64.97932 36.0243052,64.3603682 30.3991656,62.6112175 Z M2.85938303,48.5245188 C0.26338303,55.8075188 1.10738303,61.3925188 4.01238303,65.7005188 C8.42460783,72.2449626 17.464023,75.8771102 26.3584033,78.0254973 L26.249383,77.8665188 C25.8966282,77.3342496 25.5935159,76.7719984 25.3431713,76.1855676 C23.0881553,75.0986098 21.5800979,73.385172 20.451383,71.3315188 C19.734383,70.0255188 19.179383,68.5765188 18.687383,67.0595188 C18.080383,65.1875188 17.569383,63.2105188 16.976383,61.2645188 C16.116383,58.4395188 15.072383,55.6895188 13.203383,53.4505188 C11.109383,50.9425188 7.97038303,49.0915188 2.85938303,48.5245188 Z M66.569383,4.05851877 C60.735383,7.59851877 56.954383,13.6645188 55.398383,16.5405188 C55.344383,16.6395188 55.240383,16.7005188 55.127383,16.6995188 C53.824383,16.6985188 52.475383,16.7385188 51.078383,16.8205188 C49.773383,16.8965188 48.427383,17.0105188 47.039383,17.1635188 C45.652383,17.3165188 44.314383,17.4975188 43.025383,17.7065188 C41.645383,17.9305188 40.320383,18.1855188 39.051383,18.4705188 C38.912383,18.5015188 38.768383,18.4525188 38.675383,18.3455188 C36.541383,15.8895188 31.561383,10.8155188 25.131383,8.64051877 C21.896383,7.54651877 18.290383,7.19151877 14.497383,8.30551877 C13.445383,11.2915188 13.242383,14.6295188 13.476383,17.8695188 C13.936383,24.2185188 16.085383,30.1925188 16.990383,32.4745188 C17.054383,32.6375188 17.047383,32.8205188 16.971383,32.9785188 C16.175383,34.6415188 15.647383,36.3845188 15.369383,38.1805188 C15.095383,39.9565188 15.068383,41.7845188 15.270383,43.6415188 C15.932383,49.7405188 18.976383,55.0025188 24.708383,58.4745188 C30.717383,62.1145188 39.635383,63.7895188 51.803383,62.4845188 C57.057383,61.9395188 61.603383,60.9705188 65.492383,59.6685188 C70.605383,57.9565188 74.568383,55.6615188 77.483383,52.9395188 C82.392383,48.3545188 84.303383,42.5695188 83.703383,36.4485188 C83.524383,34.5805188 83.123383,32.7885188 82.492383,31.0965188 C81.852383,29.3815188 80.980383,27.7685188 79.857383,26.2895188 C79.775383,26.1835188 79.741383,26.0485188 79.763383,25.9165188 C80.194383,23.4895188 81.096383,17.1795188 80.275383,10.8385188 C79.845383,7.51251877 78.6796202,4.55881032 76.9726202,1.77181032 C72.8826202,1.45681032 69.585383,2.22851877 66.569383,4.05851877 Z"/><path d="M44.9590117,16.8380208 C45.8963705,16.8214256 46.8556879,16.8214356 47.8371822,16.8385677 C48.7069221,16.853749 49.5587893,16.8817594 50.392948,16.9222446 C50.3812719,21.8651879 49.0424291,25.8610534 47.3924914,25.8610534 C45.7356371,25.8610534 44.3924914,21.8316162 44.3924914,16.8610534 C44.3924914,16.8573603 44.3924921,16.8536678 44.3924936,16.8499757 Z M43.3512246,16.8841344 C43.1635454,20.2959888 42.3578988,22.8610534 41.3924914,22.8610534 C40.4521641,22.8610534 39.6634046,20.427532 39.4496283,17.1482969 C40.5585123,17.038678 41.7040804,16.9570547 42.8869176,16.9031631 Z M51.43974,16.9801492 C52.7814366,17.0635966 54.0758218,17.1801029 55.3236172,17.3281124 C55.0924719,20.5163481 54.3154997,22.8610534 53.3924914,22.8610534 C52.4495662,22.8610534 51.6590475,20.4140672 51.4478697,17.1210988 Z" transform="rotate(-6 47.386 21.343)"/><path d="M40.483383,66.5165188 C40.483383,66.5165188 40.456383,67.0305188 40.525383,67.8085188 C40.560383,68.1965188 40.623383,68.6285188 40.726383,69.0935188 C40.800383,69.4305188 40.901383,69.7695188 41.027383,70.1075188 C41.222383,70.6305188 41.482383,71.1325188 41.794383,71.5675188 C42.035383,71.9025188 42.316383,72.1925188 42.622383,72.4235188 C43.423383,73.0285188 44.387383,73.2825188 45.504383,72.8615188 C46.780383,72.3515188 47.344383,71.3635188 47.404383,70.1585188 C47.477383,68.7095188 46.830383,66.9935188 46.311383,65.8945188 C46.279383,65.8115188 46.186383,65.7695188 46.103383,65.8015188 C46.020383,65.8335188 45.978383,65.9265188 46.010383,66.0095188 C46.325383,67.0825188 46.684383,68.7285188 46.427383,70.0395188 C46.284383,70.7685188 45.905383,71.3615188 45.084383,71.5695188 C44.574383,71.7075188 44.156383,71.5805188 43.795383,71.3385188 C43.521383,71.1565188 43.290383,70.8955188 43.066383,70.6095188 C42.800383,70.2695188 42.552383,69.8915188 42.328383,69.4995188 C42.170383,69.2205188 42.015383,68.9475188 41.871383,68.6755188 C41.559383,68.0845188 41.298383,67.5535188 41.112383,67.1425188 C40.918383,66.7155188 40.801383,66.4615188 40.801383,66.4615188 C40.786383,66.3735188 40.703383,66.3155188 40.615383,66.3305188 C40.527383,66.3455188 40.468383,66.4285188 40.483383,66.5165188 Z"/><path d="M48.048383 65.6795188C47.848383 66.2595188 47.642383 66.8335188 47.475383 67.4265188 47.358383 67.8425188 47.269383 68.2485188 47.204383 68.6495188 47.130383 69.1115188 47.107383 69.5525188 47.125383 69.9635188 47.140383 70.3055188 47.199383 70.6235188 47.290383 70.9125188 47.593383 71.8855188 48.280383 72.5435188 49.464383 72.7275188 50.984383 72.8795188 52.172383 72.0375188 52.976383 70.6005188 53.496383 69.6725188 53.868383 68.5145188 54.118383 67.3505188 54.655383 64.8585188 54.667383 62.3865188 54.667383 62.3865188 54.673383 62.2975188 54.607383 62.2205188 54.518383 62.2145188 54.429383 62.2075188 54.352383 62.2745188 54.346383 62.3635188 54.346383 62.3635188 53.807383 66.2585188 52.420383 68.9745188 52.073383 69.6525188 51.670383 70.2455188 51.201383 70.6685188 50.772383 71.0555188 50.273383 71.2615188 49.683383 71.1575188 49.289383 71.1055188 49.026383 70.9335188 48.859383 70.6615188 48.721383 70.4375188 48.622383 70.1725188 48.557383 69.8685188 48.431383 69.2835188 48.390383 68.6085188 48.380383 67.8835188 48.369383 67.1705188 48.356383 66.4525188 48.365383 65.7335188 48.380383 65.6465188 48.321383 65.5625188 48.234383 65.5475188 48.146383 65.5325188 48.063383 65.5915188 48.048383 65.6795188zM73.772383 46.8715188C73.772383 46.8715188 73.909383 46.9025188 74.202383 46.9325188 74.456383 46.9585188 74.769383 46.9865188 75.189383 46.9955188 75.407383 46.9995188 75.631383 46.9965188 75.881383 46.9795188 76.099383 46.9645188 76.325383 46.9405188 76.560383 46.9025188 76.803383 46.8625188 77.052383 46.8075188 77.303383 46.7435188 77.667383 46.6495188 78.032383 46.5325188 78.400383 46.4165188 78.987383 46.2305188 79.557383 46.0335188 80.092383 45.8475188 81.529383 45.3465188 82.618383 44.9365188 82.618383 44.9365188 82.705383 44.9175188 82.760383 44.8315188 82.741383 44.7445188 82.722383 44.6575188 82.636383 44.6025188 82.549383 44.6215188 82.549383 44.6215188 81.388383 44.7035188 79.874383 44.8485188 79.309383 44.9025188 78.709383 44.9625188 78.098383 45.0385188 77.716383 45.0865188 77.335383 45.1315188 76.966383 45.1995188 76.710383 45.2455188 76.461383 45.2995188 76.223383 45.3655188 75.994383 45.4285188 75.779383 45.5005188 75.575383 45.5785188 75.340383 45.6675188 75.135383 45.7585188 74.939383 45.8525188 74.561383 46.0365188 74.288383 46.1925188 74.069383 46.3215188 73.815383 46.4715188 73.703383 46.5565188 73.703383 46.5565188 73.616383 46.5755188 73.561383 46.6615188 73.580383 46.7485188 73.599383 46.8355188 73.685383 46.8905188 73.772383 46.8715188zM74.050383 49.8595188C74.050383 49.8595188 74.177383 49.9195188 74.457383 50.0135188 74.698383 50.0935188 74.997383 50.1905188 75.406383 50.2905188 75.617383 50.3425188 75.836383 50.3885188 76.084383 50.4265188 76.300383 50.4605188 76.526383 50.4865188 76.763383 50.5005188 77.009383 50.5155188 77.264383 50.5165188 77.524383 50.5085188 77.899383 50.4975188 78.281383 50.4635188 78.665383 50.4305188 79.279383 50.3775188 79.878383 50.3115188 80.441383 50.2465188 81.953383 50.0735188 83.105383 49.9125188 83.105383 49.9125188 83.194383 49.9135188 83.2673933 49.8415188 83.2673933 49.7525188 83.268383 49.6635188 83.196383 49.5915188 83.107383 49.5905188 83.107383 49.5905188 81.957383 49.4155188 80.447383 49.2245188 79.885383 49.1535188 79.286383 49.0805188 78.673383 49.0205188 78.290383 48.9825188 77.909383 48.9435188 77.533383 48.9285188 77.274383 48.9175188 77.018383 48.9155188 76.772383 48.9275188 76.535383 48.9385188 76.309383 48.9625188 76.093383 48.9935188 75.844383 49.0285188 75.625383 49.0715188 75.413383 49.1215188 75.003383 49.2175188 74.703383 49.3095188 74.460383 49.3875188 74.180383 49.4775188 74.052383 49.5365188 74.052383 49.5365188 73.963383 49.5365188 73.8903727 49.6085188 73.8903727 49.6965188 73.889383 49.7855188 73.961383 49.8585188 74.050383 49.8595188zM26.996383 51.4665188C26.996383 51.4665188 26.869383 51.4055188 26.589383 51.3125188 26.348383 51.2315188 26.049383 51.1355188 25.640383 51.0345188 25.429383 50.9825188 25.210383 50.9365188 24.962383 50.8985188 24.746383 50.8645188 24.520383 50.8385188 24.283383 50.8245188 24.037383 50.8095188 23.782383 50.8085188 23.522383 50.8165188 23.147383 50.8275188 22.765383 50.8615188 22.381383 50.8945188 21.767383 50.9475188 21.168383 51.0135188 20.605383 51.0785188 19.093383 51.2515188 17.941383 51.4125188 17.941383 51.4125188 17.852383 51.4115188 17.7793727 51.4835188 17.7793727 51.5725188 17.778383 51.6615188 17.850383 51.7345188 17.939383 51.7345188 17.939383 51.7345188 19.089383 51.9095188 20.599383 52.1005188 21.161383 52.1715188 21.760383 52.2445188 22.373383 52.3045188 22.756383 52.3425188 23.137383 52.3815188 23.513383 52.3965188 23.772383 52.4075188 24.028383 52.4095188 24.274383 52.3985188 24.511383 52.3865188 24.737383 52.3625188 24.953383 52.3325188 25.201383 52.2965188 25.421383 52.2535188 25.633383 52.2035188 26.043383 52.1085188 26.343383 52.0155188 26.586383 51.9375188 26.866383 51.8475188 26.994383 51.7885188 26.994383 51.7885188 27.083383 51.7885188 27.155383 51.7175188 27.1563933 51.6285188 27.157383 51.5395188 27.085383 51.4665188 26.996383 51.4665188zM27.274383 54.4535188C27.274383 54.4535188 27.137383 54.4225188 26.844383 54.3925188 26.590383 54.3665188 26.278383 54.3385188 25.857383 54.3295188 25.639383 54.3255188 25.415383 54.3285188 25.165383 54.3455188 24.947383 54.3605188 24.721383 54.3845188 24.487383 54.4225188 24.244383 54.4625188 23.994383 54.5175188 23.743383 54.5815188 23.379383 54.6755188 23.014383 54.7925188 22.646383 54.9085188 22.059383 55.0945188 21.489383 55.2915188 20.954383 55.4775188 19.517383 55.9785188 18.428383 56.3885188 18.428383 56.3885188 18.341383 56.4075188 18.286383 56.4935188 18.305383 56.5805188 18.324383 56.6675188 18.410383 56.7225188 18.497383 56.7035188 18.497383 56.7035188 19.658383 56.6215188 21.172383 56.4765188 21.737383 56.4225188 22.337383 56.3625188 22.948383 56.2865188 23.330383 56.2395188 23.711383 56.1935188 24.080383 56.1255188 24.336383 56.0795188 24.585383 56.0255188 24.823383 55.9605188 25.052383 55.8965188 25.267383 55.8245188 25.471383 55.7465188 25.706383 55.6575188 25.911383 55.5675188 26.107383 55.4725188 26.485383 55.2885188 26.758383 55.1325188 26.977383 55.0035188 27.231383 54.8535188 27.343383 54.7685188 27.343383 54.7685188 27.430383 54.7495188 27.485383 54.6635188 27.466383 54.5765188 27.447383 54.4895188 27.361383 54.4345188 27.274383 54.4535188zM56.2544057 52.3822293C56.2871924 52.8959202 56.5333304 56.5275188 55.389383 58.9775188 54.688383 60.4805188 53.507383 61.6295188 51.698383 61.8405188 51.162383 61.8885188 50.663383 61.8525188 50.204383 61.7255188 49.117383 61.4255188 48.226383 60.7025188 47.558383 59.7565188 47.058383 59.0465188 46.667383 58.2285188 46.391383 57.4115188 45.8089576 55.6930934 45.6768565 54.0535154 45.6564965 53.7474478 45.7496172 53.8038949 45.8733044 53.8358564 46.029383 53.8425188 46.8377423 56.3159082 47.696409 58.0129082 48.605383 58.9335188 49.4129249 59.7513986 50.290383 60.4275188 51.531383 60.2575188 52.764383 60.1425188 53.527383 59.3195188 54.044383 58.3175188 54.924383 56.6105188 55.2852086 54.0572962 55.2852086 52.7915003L56.2544057 52.3822293z"/><path d="M50.736383 52.2375188C50.446383 52.6175188 50.011383 53.0805188 49.405383 53.4785188 48.763383 53.9005188 47.922383 54.2295188 46.886383 54.3275188 46.431383 54.3505188 46.020383 54.3435188 45.648383 54.2835188 44.909383 54.1635188 44.323383 53.9265188 43.872383 53.6035188 43.272383 53.1735188 42.892383 52.6625188 42.674383 52.1835188 42.381383 51.5435188 42.357383 51.0345188 42.357383 51.0345188 42.339383 50.9475188 42.394383 50.8625188 42.481383 50.8435188 42.568383 50.8255188 42.654383 50.8815188 42.672383 50.9685188 42.672383 50.9685188 43.116383 52.1055188 44.413383 52.6375188 44.613383 52.7195188 44.833383 52.7735188 45.078383 52.8225188 45.536383 52.9135188 46.077383 52.9185188 46.726383 52.8065188 47.003383 52.7685188 47.256383 52.6995188 47.493383 52.6265188 47.900383 52.5005188 48.252383 52.3345188 48.553383 52.1495188 49.490383 51.5735188 49.941383 50.8345188 49.941383 50.8345188 50.051383 50.6205188 50.262383 50.4765188 50.501383 50.4515188 50.740383 50.4255188 50.976383 50.5235188 51.128383 50.7095188 51.128383 50.7095188 51.663383 51.4305188 52.695383 51.8775188 53.239383 52.1135188 53.909383 52.2895188 54.712383 52.2475188 55.789383 52.1965188 56.538383 51.8995188 57.059383 51.4935188 58.186383 50.6165188 58.266383 49.3295188 58.266383 49.3295188 58.266383 49.2405188 58.338383 49.1685188 58.427383 49.1675188 58.515383 49.1675188 58.588383 49.2395188 58.588383 49.3285188 58.588383 49.3285188 58.669383 50.8215188 57.491383 51.9855188 56.930383 52.5405188 56.085383 53.0055188 54.813383 53.2145188 53.824383 53.3705188 52.970383 53.2415188 52.266383 53.0145188 51.623383 52.8075188 51.109383 52.5075188 50.736383 52.2375188zM57.463383 43.4275188C57.463383 43.4275188 57.719383 42.7105188 58.252383 41.7805188 58.508383 41.3315188 58.838383 40.8585188 59.253383 40.3875188 59.525383 40.0775188 59.841383 39.7845188 60.204383 39.5095188 60.676383 39.1505188 61.223383 38.8125188 61.921383 38.6165188 63.216383 38.2135188 64.334383 38.4415188 65.246383 38.8985188 66.970383 39.7625188 67.996383 41.3455188 67.996383 41.3455188 68.037383 41.4245188 68.135383 41.4535188 68.213383 41.4125188 68.292383 41.3705188 68.322383 41.2725188 68.280383 41.1945188 68.280383 41.1945188 67.450383 39.2995188 65.723383 38.0965188 64.660383 37.3575188 63.277383 36.9255188 61.584383 37.2215188 60.644383 37.4125188 59.857383 37.7605188 59.235383 38.2375188 58.755383 38.6035188 58.371383 39.0395188 58.072383 39.4965188 57.831383 39.8645188 57.642383 40.2395188 57.503383 40.6155188 57.402383 40.8865188 57.322383 41.1455188 57.267383 41.4005188 57.169383 41.8625188 57.123383 42.2625188 57.113383 42.5995188 57.099383 43.1025188 57.142383 43.4005188 57.142383 43.4005188 57.135383 43.4895188 57.201383 43.5675188 57.289383 43.5745188 57.378383 43.5825188 57.456383 43.5165188 57.463383 43.4275188zM42.539383 44.9355188C42.539383 44.9355188 42.519383 44.6355188 42.400383 44.1455188 42.320383 43.8185188 42.193383 43.4365188 42.000383 43.0055188 41.894383 42.7665188 41.761383 42.5305188 41.607383 42.2855188 41.393383 41.9475188 41.129383 41.6205188 40.818383 41.3105188 40.430383 40.9255188 39.964383 40.5795188 39.418383 40.3195188 38.711383 39.9835188 37.869383 39.8065188 36.909383 39.8145188 35.192383 39.8775188 33.928383 40.5875188 33.043383 41.5315188 31.604383 43.0665188 31.185383 45.0925188 31.185383 45.0925188 31.161383 45.1785188 31.210383 45.2675188 31.296383 45.2925188 31.381383 45.3165188 31.471383 45.2675188 31.495383 45.1815188 31.495383 45.1815188 32.170383 43.4205188 33.676383 42.2165188 34.473383 41.5795188 35.519383 41.1245188 36.869383 41.2495188 37.593383 41.2965188 38.198383 41.5135188 38.734383 41.7655188 39.147383 41.9595188 39.517383 42.1805188 39.848383 42.4265188 40.351383 42.8015188 40.772383 43.1955188 41.116383 43.5815188 41.831383 44.3805188 42.230383 45.0285188 42.230383 45.0285188 42.256383 45.1135188 42.346383 45.1615188 42.431383 45.1365188 42.516383 45.1105188 42.564383 45.0205188 42.539383 44.9355188z"/></g></g></svg>