<svg xmlns="http://www.w3.org/2000/svg" width="100" height="100" viewBox="0 0 100 100"><g fill="#000" fill-rule="evenodd" transform="translate(-300 -750)"><g transform="translate(306.824 757)"><path d="M9.0247494,61.0213239 C11.6584708,60.1890576 13.0139345,57.8820025 17.0910218,58.9822608 C17.0910218,63.4124802 16.270454,66.9751794 14.8269866,69.818437 C14.2256566,71.0029018 12.9980516,67.9189152 6.02428162,71.5426305 C5.99601885,68.4725228 9.600227,65.1015469 9.600227,65.1015469 C9.600227,65.1015469 4.73228696,64.7975622 2.09497818,68.1777859 C1.66031028,65.1900603 7.37386869,61.5430087 9.0247494,61.0213239 Z" transform="scale(-1 1) rotate(-12 0 156.276)"/><path d="M46.4924316,87.5 C49.3415527,88.1728516 52.4924316,86.7142551 52.4924316,82.2732397 C52.4924316,77.8322243 49.8061401,71.8197191 46.4924316,71.8197191 C43.1787231,71.8197191 42,77.4012698 42,81.8422852 C42,86.2833005 43.6433105,86.8271484 46.4924316,87.5 Z" transform="matrix(-1 0 0 1 94.492 0)"/><path d="M8.17839214,20.7533724 C14.7474686,19.595067 20.4722498,21.4667393 24.1223757,23.2433445 C19.0205698,25.5203816 15.1872496,28.7062135 12.9449232,32.7735719 C11.1035789,30.2219263 8.58654487,25.8740895 8.17839214,20.7533724 Z M53.7127752,19.6363167 L53.7684118,19.3763347 C54.7353589,14.9021211 56.7381215,8.7327865 60.7320679,5.55874794 C69.6055407,11.3777044 71.0182648,21.1342199 70.9887039,26.9171719 C66.5838249,23.369562 60.6493775,20.742776 53.7127752,19.6363167 Z" transform="scale(-1 1) rotate(10 0 -433.278)"/></g><g transform="translate(303.928 756.794)"><path d="M6.51879334,57.3560159 C7.68570863,57.2875226 8.77307458,57.291309 9.78792707,57.3603025 L10.3649899,58.9323568 C9.38018912,58.8186095 8.31527178,58.7743314 7.16079334,58.8080159 C5.60379334,66.3810159 7.21679334,71.7940159 10.6937933,75.6560159 C16.1270892,81.6938615 25.9854162,83.9947703 35.3322172,84.8257071 L35.2357933,84.7090159 C34.8981476,84.2882938 34.5916063,83.834198 34.3173922,83.3482299 C31.3831722,82.7168377 29.3563109,81.0837939 27.7567933,78.9440159 C26.8637933,77.7510159 26.1127933,76.3930159 25.4147933,74.9590159 C24.5527933,73.1900159 23.7717933,71.3040159 22.9137933,69.4590159 C22.3808617,68.3131058 21.8165971,67.1851526 21.1758215,66.1162558 L22.9180765,66.116803 C23.1542362,66.5620081 23.3793619,67.0148707 23.5957933,67.4730159 C24.6787933,69.7650159 25.5427933,72.1920159 26.5277933,74.4460159 C27.1387933,75.8450159 27.7917933,77.1760159 28.5797933,78.3640159 C29.8821758,80.3281102 31.5504335,81.8936901 33.9871562,82.7158422 C33.0911516,80.8535123 32.6283254,78.5784749 32.6577933,75.9630159 C32.6997933,72.5380159 33.6547933,69.7400159 35.0587933,67.3920159 L34.9755098,67.5325572 L36.0249284,67.5314592 C35.963311,67.6357493 35.9025839,67.7409294 35.8427933,67.8470159 C34.5787933,70.0890159 33.7407933,72.7410159 33.7807933,75.9630159 C33.8177933,79.2700159 34.6657933,81.9700159 36.2577933,83.8710159 C37.9307933,85.8690159 40.4337933,86.9470159 43.6307933,86.9170159 L43.6940791,86.9165612 C44.3342644,86.9119617 49.6157933,86.8740159 49.6157933,86.8740159 C52.6817933,86.8760159 54.9107933,85.6140159 56.3457933,83.6290159 C57.7927933,81.6270159 58.4597933,78.9150159 58.3547933,75.9960159 C58.3027933,74.0230159 57.7247933,71.6480159 56.9997933,69.3240159 L56.9135098,69.0515572 L57.4659753,67.6856864 C57.6022105,68.020478 57.7359511,68.3587288 57.8660344,68.6990363 L57.9757933,68.9890159 C58.8737933,71.3840159 59.5517933,73.8620159 59.6997933,75.9310159 C59.9017933,79.2010159 59.2157933,82.2710159 57.6217933,84.5390159 C55.9417933,86.9280159 53.2727933,88.4470159 49.6157933,88.4480159 C49.6157933,88.4480159 44.3342644,88.41007 43.6940791,88.4054705 L43.6307933,88.4050159 C40.2515108,88.3737602 37.5761802,87.2506609 35.7089018,85.2547943 C26.0095837,84.6784525 15.6686394,82.5332729 9.88879334,76.3970159 C6.00079334,72.2700159 4.13579334,66.3570159 5.83679334,57.9390159 C5.90679334,57.6130159 6.18579334,57.3740159 6.51879334,57.3560159 Z"/><path d="M38.5937933,68.3280159 C38.1417933,68.9400159 37.8327933,69.7310159 37.6687933,70.6330159 C37.6047933,70.9820159 37.5797933,71.3390159 37.5727933,71.7060159 C37.5617933,72.4250159 37.6537933,73.1580159 37.8357933,73.8540159 C37.9637933,74.3410159 38.1477933,74.8050159 38.3697933,75.2310159 C38.6157933,75.7010159 38.9157933,76.1240159 39.2557933,76.4790159 C40.1647933,77.4260159 41.3387933,77.9350159 42.7167933,77.6510159 C43.7307933,77.4330159 44.2757933,77.0320159 44.5367933,76.5320159 C44.6887933,76.2440159 44.7677933,75.9250159 44.7577933,75.5720159 C44.7397933,74.8970159 44.4347933,74.0890159 44.1127933,73.2500159 C43.7087933,72.1950159 43.2887933,71.0890159 43.7247933,70.1490159 C43.7667933,70.0710159 43.7377933,69.9730159 43.6597933,69.9310159 C43.5817933,69.8880159 43.4837933,69.9170159 43.4417933,69.9950159 C42.9207933,70.8240159 43.0317933,71.8700159 43.2627933,72.9160159 C43.4737933,73.8700159 43.7997933,74.8110159 43.7367933,75.5400159 C43.6927933,76.0320159 43.3447933,76.2980159 42.5127933,76.3870159 C41.6287933,76.4920159 40.9407933,76.0750159 40.4047933,75.4420159 C40.1687933,75.1640159 39.9687933,74.8390159 39.7857933,74.4900159 C39.6067933,74.1470159 39.4497933,73.7790159 39.3127933,73.3960159 C39.1047933,72.8190159 38.9427933,72.2180159 38.8377933,71.6140159 C38.7047933,70.8460159 38.6347933,70.1070159 38.7067933,69.4220159 C38.7417933,69.0820159 38.7837933,68.7720159 38.8787933,68.4780159 C38.9197933,68.3990159 38.8897933,68.3010159 38.8107933,68.2600159 C38.7317933,68.2190159 38.6347933,68.2490159 38.5937933,68.3280159 Z"/><path d="M59.2690227,4.78645301 C64.9898453,6.17169374 75.7566052,12.6970084 76.9090301,37.4854374 C77.9942355,39.966278 78.5153673,42.5896532 78.3742508,45.282318 C77.5451351,61.1027868 61.2460784,68.4176048 41.6668393,67.3915003 C38.8504411,67.2438992 36.1130542,66.9401262 33.4927572,66.479826 L33.490893,65.5116237 C35.9683143,65.9421934 38.5542246,66.2270028 41.2136843,66.3663791 C59.9690426,67.3493058 75.5824225,60.3389287 76.3769917,45.177646 C76.5160489,42.524277 75.9843732,39.9411303 74.8848313,37.5059253 C74.9180899,25.8483308 70.0928692,8.64116918 59.4407329,6.18491985 C56.9719205,7.38383804 54.0012813,9.38727423 50.3127696,21.2297353 C48.1572538,20.8220546 45.9199176,20.5498945 43.6211382,20.4294205 C24.8657799,19.4464939 8.99230306,26.0394502 8.17663014,41.6034165 C7.55160208,53.5296624 16.2703011,61.141413 28.8187423,64.4903002 C28.7121219,64.8359344 28.6225056,65.1345539 28.5502636,65.387527 C15.5461118,61.8673447 6.52872608,53.9399767 7.17800061,41.5510806 C7.30955539,39.0408658 7.81664636,36.7542943 8.65233876,34.6859897 C5.56571657,28.5209626 3.36714983,21.6625985 4.14408569,17.7721734 C8.29006815,15.0615803 18.4113172,11.4677573 31.7881731,19.9476752 C35.6810034,19.3895025 39.8566717,19.2307609 44.1789652,19.4572827 C45.8969304,19.5473174 47.5820246,19.7184706 49.226321,19.9647556 C51.9558276,10.4149089 56.0027426,6.57845566 59.2690227,4.78645301 Z M4.82676879,18.3563205 C4.54568785,22.219235 6.81036733,28.2700645 9.32551472,33.2072968 C12.7152112,26.5123629 19.798343,22.3443421 28.7090289,20.4887452 C18.9946455,14.1513669 8.93084056,15.8470385 4.82676879,18.3563205 Z" transform="scale(-1 1) rotate(7 0 -637.346)"/><path d="M41.7961,19.9109311 C42.2718829,19.9109311 42.7415545,19.9161988 43.2051495,19.9266434 L43.1506041,20.1983324 L43.1506041,20.1983324 L43.08509,20.5144197 C42.0516519,25.3763637 40.0789931,29.0765194 38.6790333,28.7789487 C37.3370243,28.4936959 37.0084373,24.6383835 37.8938743,20.0368767 C39.1458827,19.9533218 40.4464015,19.9109311 41.7961,19.9109311 Z M36.9993685,20.1031227 C36.1286667,23.5027784 34.8846288,25.9587585 34.0537991,25.7821602 C33.3151633,25.6251583 33.1244843,23.4344677 33.5039707,20.5190375 C34.6041346,20.3453632 35.749229,20.2077732 36.9396525,20.107616 Z M43.951077,19.9480857 C45.1229615,19.989139 46.2550189,20.0639065 47.3478334,20.1708607 C46.477753,23.535941 45.2449255,25.9575618 44.4197256,25.7821602 C43.645764,25.6176496 43.4734254,23.220274 43.9282595,20.0959111 Z" transform="scale(-1 1) rotate(10 0 -436.63)"/><path d="M60.6499052,48.2439417 C62.3067595,48.2439417 63.6499052,46.900796 63.6499052,45.2439417 C63.6499052,43.5870875 62.3067595,42.2439417 60.6499052,42.2439417 C58.993051,42.2439417 57.6499052,43.5870875 57.6499052,45.2439417 C57.6499052,46.900796 58.993051,48.2439417 60.6499052,48.2439417 Z"/><circle cx="38.028" cy="49.445" r="3"/><path fill-rule="nonzero" d="M63.9543451,76.0039633 C64.0593451,76.0039633 64.1343451,75.9739633 64.1793451,75.9139633 C64.1793451,75.5689633 64.0893451,75.3289633 63.9093451,75.1939633 C63.7293451,75.0589633 63.5343451,74.9164633 63.3243451,74.7664633 C63.3693451,74.1514633 64.2843451,73.2289633 66.0693451,71.9989633 C68.1093451,70.5889633 69.3318451,69.5764633 69.7368451,68.9614633 C70.2018451,68.2564633 70.4343451,67.6489633 70.4343451,67.1389633 C70.4343451,66.2539633 69.8868451,65.4214633 68.7918451,64.6414633 C67.7868451,63.9214633 66.8193451,63.5614633 65.8893451,63.5614633 C65.4243451,63.5614633 64.6518451,63.7564633 63.5718451,64.1464633 C62.9718451,64.3564633 62.2443451,64.8289633 61.3893451,65.5639633 C60.4293451,66.4039633 59.9493451,67.0714633 59.9493451,67.5664633 C59.9493451,67.8364633 60.1293451,68.1252133 60.4893451,68.4327133 C60.8493451,68.7402133 61.1643451,68.8939633 61.4343451,68.8939633 C61.5993451,68.8939633 61.8018451,68.8077133 62.0418451,68.6352133 C62.2818451,68.4627133 62.4018451,68.2939633 62.4018451,68.1289633 C62.4018451,67.8889633 62.2143451,67.7689633 61.8393451,67.7689633 C61.7943451,67.7689633 61.7268451,67.7839633 61.6368451,67.8139633 C61.5468451,67.8439633 61.4793451,67.8589633 61.4343451,67.8589633 C61.3293451,67.8589633 61.2543451,67.8214633 61.2093451,67.7464633 C61.5843451,67.0864633 62.3380951,66.4227133 63.4705951,65.7552133 C64.6030951,65.0877133 65.5368451,64.7539633 66.2718451,64.7539633 C67.0068451,64.7539633 67.6293451,64.9639633 68.1393451,65.3839633 C68.6793451,65.8489633 68.9493451,66.4339633 68.9493451,67.1389633 C68.9493451,68.1289633 67.9218451,69.3439633 65.8668451,70.7839633 C65.1468451,71.2639633 64.4193451,71.7364633 63.6843451,72.2014633 C62.7843451,72.8614633 62.3343451,73.5364633 62.3343451,74.2264633 C62.3343451,74.4964633 62.5368451,74.8602133 62.9418451,75.3177133 C63.3468451,75.7752133 63.6843451,76.0039633 63.9543451,76.0039633 Z M64.0218451,78.6139633 C64.6368451,78.6139633 64.9443451,78.2839633 64.9443451,77.6239633 C64.9443451,77.3089633 64.8468451,77.0427133 64.6518451,76.8252133 C64.4568451,76.6077133 64.2018451,76.4989633 63.8868451,76.4989633 C63.6618451,76.4989633 63.4068451,76.5664633 63.1218451,76.7014633 C62.7918451,76.8664633 62.6268451,77.0464633 62.6268451,77.2414633 C62.6268451,77.6464633 62.7580951,77.9764633 63.0205951,78.2314633 C63.2830951,78.4864633 63.6168451,78.6139633 64.0218451,78.6139633 Z" transform="rotate(20 65.192 71.088)"/><path fill-rule="nonzero" d="M79.5095584,69.0337311 C79.6145584,69.0337311 79.6895584,69.0037311 79.7345584,68.9437311 C79.7345584,68.5987311 79.6445584,68.3587311 79.4645584,68.2237311 C79.2845584,68.0887311 79.0895584,67.9462311 78.8795584,67.7962311 C78.9245584,67.1812311 79.8395584,66.2587311 81.6245584,65.0287311 C83.6645584,63.6187311 84.8870584,62.6062311 85.2920584,61.9912311 C85.7570584,61.2862311 85.9895584,60.6787311 85.9895584,60.1687311 C85.9895584,59.2837311 85.4420584,58.4512311 84.3470584,57.6712311 C83.3420584,56.9512311 82.3745584,56.5912311 81.4445584,56.5912311 C80.9795584,56.5912311 80.2070584,56.7862311 79.1270584,57.1762311 C78.5270584,57.3862311 77.7995584,57.8587311 76.9445584,58.5937311 C75.9845584,59.4337311 75.5045584,60.1012311 75.5045584,60.5962311 C75.5045584,60.8662311 75.6845584,61.1549811 76.0445584,61.4624811 C76.4045584,61.7699811 76.7195584,61.9237311 76.9895584,61.9237311 C77.1545584,61.9237311 77.3570584,61.8374811 77.5970584,61.6649811 C77.8370584,61.4924811 77.9570584,61.3237311 77.9570584,61.1587311 C77.9570584,60.9187311 77.7695584,60.7987311 77.3945584,60.7987311 C77.3495584,60.7987311 77.2820584,60.8137311 77.1920584,60.8437311 C77.1020584,60.8737311 77.0345584,60.8887311 76.9895584,60.8887311 C76.8845584,60.8887311 76.8095584,60.8512311 76.7645584,60.7762311 C77.1395584,60.1162311 77.8933084,59.4524811 79.0258084,58.7849811 C80.1583084,58.1174811 81.0920584,57.7837311 81.8270584,57.7837311 C82.5620584,57.7837311 83.1845584,57.9937311 83.6945584,58.4137311 C84.2345584,58.8787311 84.5045584,59.4637311 84.5045584,60.1687311 C84.5045584,61.1587311 83.4770584,62.3737311 81.4220584,63.8137311 C80.7020584,64.2937311 79.9745584,64.7662311 79.2395584,65.2312311 C78.3395584,65.8912311 77.8895584,66.5662311 77.8895584,67.2562311 C77.8895584,67.5262311 78.0920584,67.8899811 78.4970584,68.3474811 C78.9020584,68.8049811 79.2395584,69.0337311 79.5095584,69.0337311 Z M79.5770584,71.6437311 C80.1920584,71.6437311 80.4995584,71.3137311 80.4995584,70.6537311 C80.4995584,70.3387311 80.4020584,70.0724811 80.2070584,69.8549811 C80.0120584,69.6374811 79.7570584,69.5287311 79.4420584,69.5287311 C79.2170584,69.5287311 78.9620584,69.5962311 78.6770584,69.7312311 C78.3470584,69.8962311 78.1820584,70.0762311 78.1820584,70.2712311 C78.1820584,70.6762311 78.3133084,71.0062311 78.5758084,71.2612311 C78.8383084,71.5162311 79.1720584,71.6437311 79.5770584,71.6437311 Z" transform="rotate(24 80.747 64.117)"/><path fill-rule="nonzero" d="M77.6156324,85.044419 C77.7206324,85.044419 77.7956324,85.014419 77.8406324,84.954419 C77.8406324,84.609419 77.7506324,84.369419 77.5706324,84.234419 C77.3906324,84.099419 77.1956324,83.956919 76.9856324,83.806919 C77.0306324,83.191919 77.9456324,82.269419 79.7306324,81.039419 C81.7706324,79.629419 82.9931324,78.616919 83.3981324,78.001919 C83.8631324,77.296919 84.0956324,76.689419 84.0956324,76.179419 C84.0956324,75.294419 83.5481324,74.461919 82.4531324,73.681919 C81.4481324,72.961919 80.4806324,72.601919 79.5506324,72.601919 C79.0856324,72.601919 78.3131324,72.796919 77.2331324,73.186919 C76.6331324,73.396919 75.9056324,73.869419 75.0506324,74.604419 C74.0906324,75.444419 73.6106324,76.111919 73.6106324,76.606919 C73.6106324,76.876919 73.7906324,77.165669 74.1506324,77.473169 C74.5106324,77.780669 74.8256324,77.934419 75.0956324,77.934419 C75.2606324,77.934419 75.4631324,77.848169 75.7031324,77.675669 C75.9431324,77.503169 76.0631324,77.334419 76.0631324,77.169419 C76.0631324,76.929419 75.8756324,76.809419 75.5006324,76.809419 C75.4556324,76.809419 75.3881324,76.824419 75.2981324,76.854419 C75.2081324,76.884419 75.1406324,76.899419 75.0956324,76.899419 C74.9906324,76.899419 74.9156324,76.861919 74.8706324,76.786919 C75.2456324,76.126919 75.9993824,75.463169 77.1318824,74.795669 C78.2643824,74.128169 79.1981324,73.794419 79.9331324,73.794419 C80.6681324,73.794419 81.2906324,74.004419 81.8006324,74.424419 C82.3406324,74.889419 82.6106324,75.474419 82.6106324,76.179419 C82.6106324,77.169419 81.5831324,78.384419 79.5281324,79.824419 C78.8081324,80.304419 78.0806324,80.776919 77.3456324,81.241919 C76.4456324,81.901919 75.9956324,82.576919 75.9956324,83.266919 C75.9956324,83.536919 76.1981324,83.900669 76.6031324,84.358169 C77.0081324,84.815669 77.3456324,85.044419 77.6156324,85.044419 Z M77.6831324,87.654419 C78.2981324,87.654419 78.6056324,87.324419 78.6056324,86.664419 C78.6056324,86.349419 78.5081324,86.083169 78.3131324,85.865669 C78.1181324,85.648169 77.8631324,85.539419 77.5481324,85.539419 C77.3231324,85.539419 77.0681324,85.606919 76.7831324,85.741919 C76.4531324,85.906919 76.2881324,86.086919 76.2881324,86.281919 C76.2881324,86.686919 76.4193824,87.016919 76.6818824,87.271919 C76.9443824,87.526919 77.2781324,87.654419 77.6831324,87.654419 Z" transform="rotate(24 78.853 80.128)"/><path d="M28.2157933 57.0170159C28.2157933 57.0170159 28.1287933 56.9510159 27.9057933 56.8320159 27.7177933 56.7310159 27.4987933 56.6170159 27.1727933 56.4820159 27.0087933 56.4140159 26.8407933 56.3520159 26.6437933 56.2940159 26.4737933 56.2440159 26.2977933 56.2010159 26.1077933 56.1680159 25.9127933 56.1340159 25.7087933 56.1140159 25.4997933 56.1010159 25.1977933 56.0830159 24.8897933 56.0880233 24.5787933 56.0910159 24.0807933 56.0960159 23.5977933 56.1160159 23.1397933 56.1360159 21.9067933 56.1920159 20.9747933 56.2630159 20.9747933 56.2630159 20.8857933 56.2530159 20.8067933 56.3180159 20.7977933 56.4060159 20.7887933 56.4950159 20.8527933 56.5740159 20.9407933 56.5830159 20.9407933 56.5830159 21.8387933 56.8440159 23.0337933 57.1530159 23.4777933 57.2670159 23.9467933 57.3860159 24.4327933 57.4940159 24.7357933 57.5610159 25.0367933 57.6290159 25.3367933 57.6730159 25.5427933 57.7040159 25.7467933 57.7260159 25.9447933 57.7330159 26.1367933 57.7410159 26.3187933 57.7340159 26.4957933 57.7200159 26.7007933 57.7040159 26.8767933 57.6780159 27.0517933 57.6450159 27.3987933 57.5800159 27.6357933 57.5140159 27.8407933 57.4540159 28.0837933 57.3830159 28.1817933 57.3370159 28.1817933 57.3370159 28.2707933 57.3460159 28.3497933 57.2820159 28.3587933 57.1940159 28.3687933 57.1050159 28.3037933 57.0260159 28.2157933 57.0170159zM29.0327933 59.8970159C29.0327933 59.8970159 28.9357933 59.8580159 28.6957933 59.8020159 28.4947933 59.7560159 28.2637933 59.7050159 27.9247933 59.6620159 27.7537933 59.6410159 27.5837933 59.6260159 27.3847933 59.6230159 27.2147933 59.6210159 27.0397933 59.6260159 26.8557933 59.6450159 26.6667933 59.6660159 26.4717933 59.7010159 26.2757933 59.7440159 25.9917933 59.8080159 25.7087933 59.8950159 25.4217933 59.9810159 24.9627933 60.1200159 24.5227933 60.2680159 24.1047933 60.4110159 22.9787933 60.7950159 22.1387933 61.1130159 22.1387933 61.1130159 22.0517933 61.1280159 21.9927933 61.2120159 22.0077933 61.2990159 22.0237933 61.3870159 22.1067933 61.4450159 22.1947933 61.4300159 22.1947933 61.4300159 23.0927933 61.4410159 24.2827933 61.4170159 24.7237933 61.4080159 25.1877933 61.3970159 25.6667933 61.3700159 25.9657933 61.3530159 26.2607933 61.3380159 26.5507933 61.3010159 26.7497933 61.2750159 26.9447933 61.2410159 27.1287933 61.1950159 27.3087933 61.1510159 27.4747933 61.0960159 27.6337933 61.0350159 27.8197933 60.9650159 27.9747933 60.8930159 28.1277933 60.8140159 28.4317933 60.6580159 28.6307933 60.5310159 28.8047933 60.4190159 29.0117933 60.2840159 29.0887933 60.2140159 29.0887933 60.2140159 29.1757933 60.1990159 29.2347933 60.1150159 29.2187933 60.0280159 29.2037933 59.9400159 29.1197933 59.8820159 29.0327933 59.8970159zM68.0057933 49.1250159C68.0057933 49.1250159 68.1137933 49.1340159 68.3667933 49.1180159 68.5787933 49.1040159 68.8247933 49.0850159 69.1727933 49.0280159 69.3487933 48.9990159 69.5237933 48.9630159 69.7217933 48.9080159 69.8917933 48.8610159 70.0647933 48.8050159 70.2427933 48.7320159 70.4267933 48.6580159 70.6107933 48.5670159 70.7947933 48.4680159 71.0607933 48.3230159 71.3197933 48.1570159 71.5817933 47.9900159 72.0027933 47.7220159 72.4017933 47.4500159 72.7807933 47.1910159 73.7977933 46.4920159 74.5517933 45.9400159 74.5517933 45.9400159 74.6317933 45.9010159 74.6647933 45.8040159 74.6257933 45.7240159 74.5877933 45.6450159 74.4907933 45.6110159 74.4107933 45.6500159 74.4107933 45.6500159 73.5107933 45.9020159 72.3327933 46.2720159 71.8957933 46.4090159 71.4347933 46.5560159 70.9647933 46.7220159 70.6717933 46.8250159 70.3807933 46.9260159 70.1027933 47.0460159 69.9117933 47.1300159 69.7267933 47.2190159 69.5547933 47.3170159 69.3877933 47.4120159 69.2367933 47.5140159 69.0947933 47.6190159 68.9287933 47.7410159 68.7927933 47.8560159 68.6607933 47.9770159 68.4017933 48.2150159 68.2347933 48.3970159 68.0927933 48.5560159 67.9237933 48.7440159 67.8647933 48.8350159 67.8647933 48.8350159 67.7847933 48.8740159 67.7507933 48.9710159 67.7897933 49.0510159 67.8287933 49.1310159 67.9257933 49.1640159 68.0057933 49.1250159zM48.4407933 58.6070159C48.4407933 58.6070159 48.7017933 58.4500159 49.2257933 58.2270159 49.3747933 58.1630159 49.5357933 58.1280159 49.7257933 58.0610159 49.9357933 57.9860159 50.1757933 57.9440159 50.4497933 57.8780159 50.6207933 57.8370159 50.8007933 57.7830159 51.0007933 57.7440159 51.1837933 57.7090159 51.3757933 57.6630159 51.5877933 57.6430159 52.4667933 57.5300159 53.1287933 57.3100159 53.6257933 56.9960159 54.7197933 56.3030159 54.9877933 55.4200159 54.9877933 55.4200159 55.0257933 55.3390159 54.9917933 55.2430159 54.9117933 55.2050159 54.8307933 55.1670159 54.7347933 55.2010159 54.6967933 55.2810159 54.6967933 55.2810159 54.2607933 55.8680159 53.2497933 56.1550159 52.8107933 56.2790159 52.2737933 56.3140159 51.5917933 56.2220159 51.0967933 56.1830159 50.6537933 56.1900159 50.2667933 56.2790159 49.9407933 56.3540159 49.6577933 56.4770159 49.4157933 56.6210159 49.3117933 56.6840159 49.2137933 56.7430159 49.1277933 56.8160159 48.8917933 57.0170159 48.7027933 57.1940159 48.5677933 57.4020159 48.4117933 57.6430159 48.3137933 57.8260159 48.2557933 58.0130159 48.1617933 58.3140159 48.1517933 58.4640159 48.1517933 58.4640159 48.1117933 58.5440159 48.1447933 58.6410159 48.2247933 58.6800159 48.3037933 58.7190159 48.4007933 58.6870159 48.4407933 58.6070159zM68.8437933 52.1030159C68.8437933 52.1030159 68.9187933 52.1420159 69.1357933 52.2050159 69.3127933 52.2570159 69.5017933 52.3110159 69.8037933 52.3640159 69.9517933 52.3900159 70.0957933 52.4080159 70.2697933 52.4160159 70.4167933 52.4230159 70.5657933 52.4220159 70.7247933 52.4070159 70.8877933 52.3910159 71.0537933 52.3610159 71.2217933 52.3220159 71.4657933 52.2660159 71.7067933 52.1860159 71.9517933 52.1070159 72.3457933 51.9800159 72.7187933 51.8440159 73.0757933 51.7120159 74.0417933 51.3540159 74.7527933 51.0610159 74.7527933 51.0610159 74.8397933 51.0460159 74.8987933 50.9620159 74.8827933 50.8740159 74.8677933 50.7870159 74.7837933 50.7280159 74.6967933 50.7440159 74.6967933 50.7440159 73.9287933 50.7110159 72.8987933 50.7050159 72.5167933 50.7040159 72.1207933 50.7030159 71.7067933 50.7180159 71.4497933 50.7280159 71.1967933 50.7350159 70.9477933 50.7660159 70.7767933 50.7870159 70.6097933 50.8160159 70.4517933 50.8570159 70.2967933 50.8970159 70.1557933 50.9470159 70.0207933 51.0040159 69.8597933 51.0710159 69.7307933 51.1370159 69.6007933 51.2120159 69.3347933 51.3640159 69.1757933 51.4800159 69.0267933 51.5890159 68.8457933 51.7230159 68.7877933 51.7860159 68.7877933 51.7860159 68.6997933 51.8010159 68.6417933 51.8850159 68.6567933 51.9720159 68.6727933 52.0600159 68.7557933 52.1180159 68.8437933 52.1030159zM56.3987933 70.3430159C56.9667933 69.8390159 57.4337933 69.1300159 57.7827933 68.2810159 57.9167933 67.9540159 58.0167933 67.6100159 58.0987933 67.2520159 58.2597933 66.5510159 58.3217933 65.8150159 58.2887933 65.0960159 58.2647933 64.5930159 58.1817933 64.1010159 58.0527933 63.6380159 57.9097933 63.1270159 57.7047933 62.6510159 57.4457933 62.2340159 56.7527933 61.1180159 55.7107933 60.3760159 54.3037933 60.3670159 53.2667933 60.3700159 52.6507933 60.6490159 52.2907933 61.0830159 52.0827933 61.3340159 51.9387933 61.6290159 51.8747933 61.9770159 51.7527933 62.6410159 51.8827933 63.4940159 52.0227933 64.3820159 52.1987933 65.4980159 52.3797933 66.6670159 51.7577933 67.4960159 51.6997933 67.5630159 51.7077933 67.6650159 51.7757933 67.7230159 51.8437933 67.7810159 51.9447933 67.7730159 52.0027933 67.7050159 52.6847933 67.0020159 52.7927933 65.9560159 52.7847933 64.8850159 52.7767933 63.9080159 52.6537933 62.9190159 52.8677933 62.2200159 53.0117933 61.7480159 53.4087933 61.5600159 54.2397933 61.6460159 55.1267933 61.7270159 55.7127933 62.2780159 56.1067933 63.0090159 56.2787933 63.3290159 56.4067933 63.6890159 56.5127933 64.0680159 56.6167933 64.4410159 56.6937933 64.8340159 56.7487933 65.2370159 56.8317933 65.8440159 56.8657933 66.4660159 56.8427933 67.0790159 56.8127933 67.8580159 56.7277933 68.5950159 56.5157933 69.2500159 56.4097933 69.5750159 56.3047933 69.8700159 56.1507933 70.1380159 56.0937933 70.2070159 56.1037933 70.3080159 56.1717933 70.3650159 56.2407933 70.4220159 56.3417933 70.4120159 56.3987933 70.3430159z"/></g></g></svg>