<svg xmlns="http://www.w3.org/2000/svg" viewBox="0 0 24 24"><path fill="#807a6e" d="M15 8.5a2.0023 2.0023 0 0 1-2-2v-1a3.0033 3.0033 0 0 1 3-3h1a2.0023 2.0023 0 0 1 2 2v1a3.0033 3.0033 0 0 1-3 3zM8 8.5a3.0033 3.0033 0 0 1-3-3v-1a2.0023 2.0023 0 0 1 2-2H8a3.0033 3.0033 0 0 1 3 3v1a2.0023 2.0023 0 0 1-2 2z"/><circle cx="12" cy="12.5" r="9" fill="#f2eda7"/><path fill="#f5f5f5" d="M12,16.4976a1.001,1.001,0,0,1-1-1v-2a1,1,0,1,1,2,0v2A1.001,1.001,0,0,1,12,16.4976Z"/><circle cx="15" cy="9.5" r="1" fill="#807a6e"/><circle cx="9" cy="9.5" r="1" fill="#807a6e"/><circle cx="12" cy="13.498" r="1" fill="#fa8f82"/><g><circle cx="15.5" cy="9" r=".5" fill="#f5f5f5"/><circle cx="9.5" cy="9" r=".5" fill="#f5f5f5"/></g><g data-name="Layer 6"><path d="M16.25 9.5A1.25 1.25 0 1 0 15 10.75 1.2511 1.2511 0 0 0 16.25 9.5zm-2 0a.75.75 0 1 1 .75.75A.7511.7511 0 0 1 14.25 9.5zM10.25 9.5A1.25 1.25 0 1 0 9 10.75 1.2511 1.2511 0 0 0 10.25 9.5zm-2 0a.75.75 0 1 1 .75.75A.7511.7511 0 0 1 8.25 9.5zM13.25 15.4976v-2a1.25 1.25 0 1 0-2.5 0v2a1.25 1.25 0 1 0 2.5 0zM12 12.7476a.75.75 0 1 1-.75.75A.7511.7511 0 0 1 12 12.7476zm-.75 2.75V14.4712a1.1557 1.1557 0 0 0 1.5 0v1.0264a.75.75 0 0 1-1.5 0z"/><path d="M19.0662,6.5437A3.149,3.149,0,0,0,19.25,5.5v-1a.25.25,0,0,0-.5,0v1a2.7242,2.7242,0,0,1-.0753.6129,9.2408,9.2408,0,0,0-4.54-2.6044A2.685,2.685,0,0,1,16,2.75h1a1.7627,1.7627,0,0,1,1.5146.8755.25.25,0,0,0,.4317-.252A2.2634,2.2634,0,0,0,17,2.25H16a3.1872,3.1872,0,0,0-2.4449,1.1413,8.9712,8.9712,0,0,0-3.1193-.0094A3.1869,3.1869,0,0,0,8,2.25H7A2.2528,2.2528,0,0,0,4.75,4.5v1a3.1486,3.1486,0,0,0,.18,1.0305A9.2575,9.2575,0,0,0,7.8887,20.7886.2538.2538,0,0,0,8,20.8145a.25.25,0,0,0,.1113-.4742,8.6966,8.6966,0,0,1-4.2256-4.59H7a.25.25,0,0,0,0-.5H3.7047a8.7189,8.7189,0,0,1-.366-1.5H7a.25.25,0,0,0,0-.5H3.3021c-.0212-.2493-.0521-.4963-.0521-.75A8.704,8.704,0,0,1,8.1113,4.66a.25.25,0,0,0-.2226-.4483A9.2789,9.2789,0,0,0,5.3262,6.1157,2.7191,2.7191,0,0,1,5.25,5.5v-1A1.7522,1.7522,0,0,1,7,2.75H8a2.6857,2.6857,0,0,1,1.8621.7549,9.18,9.18,0,0,0-.9451.2715.25.25,0,0,0,.166.4716A8.7561,8.7561,0,0,1,20.75,12.5c0,.2532-.0168.5023-.038.75H17a.25.25,0,0,0,0,.5h3.65a8.6848,8.6848,0,0,1-.35,1.5H17a.25.25,0,0,0,0,.5h3.1173A8.7505,8.7505,0,0,1,9.083,20.752a.25.25,0,0,0-.166.4716,9.2442,9.2442,0,0,0,10.1492-14.68Z"/></g></svg>