<svg xmlns="http://www.w3.org/2000/svg" enable-background="new 0 0 512 512" viewBox="0 0 512 512"><rect width="10" height="30" x="251" y="280"/><path d="M256 285c-1.3 0-2.6-.5-3.5-1.5l-15.9-15.9c-3.6-3.6-5.6-8.4-5.6-13.5 0-10.6 8.6-19.1 19.1-19.1h11.7c10.6 0 19.1 8.6 19.1 19.1 0 5.1-2 9.9-5.6 13.5l-15.9 15.9C258.6 284.5 257.3 285 256 285zM250.1 245c-5 0-9.1 4.1-9.1 9.1 0 2.4 1 4.7 2.7 6.5l12.3 12.3 12.3-12.3c1.7-1.7 2.7-4 2.7-6.5 0-5-4.1-9.1-9.1-9.1H250.1zM337.8 264.5l-40-20c-1.7-.8-2.8-2.6-2.8-4.5s1.1-3.6 2.8-4.5l40-20 4.5 8.9L311.2 240l31.1 15.5L337.8 264.5zM174.2 264.5l-4.5-8.9 31.1-15.5-31.1-15.5 4.5-8.9 40 20c1.7.8 2.8 2.6 2.8 4.5s-1.1 3.6-2.8 4.5L174.2 264.5z"/><rect width="10" height="41.2" x="103" y="303.4" transform="rotate(75.96 108 324.015)"/><rect width="41.2" height="10" x="87.4" y="289" transform="rotate(14.035 108.012 294.045)"/><rect width="10" height="41.2" x="399" y="273.4" transform="rotate(75.96 404.013 294.018)"/><rect width="41.2" height="10" x="383.4" y="319" transform="rotate(14.035 404.056 324.053)"/><path d="M235 335c-1.2 0-2.5-.5-3.4-1.4L214 316.9l-17.5 16.7c-1.9 1.8-5 1.8-6.9 0l-21-20 6.9-7.2 17.5 16.7 17.5-16.7c1.9-1.8 5-1.8 6.9 0l17.6 16.7 17.6-16.7c1.9-1.8 5-1.8 6.9 0l17.6 16.7 17.6-16.7c1.9-1.8 5-1.8 6.9 0l17.6 16.7 17.6-16.7 6.9 7.2-21 20c-1.9 1.8-5 1.8-6.9 0L298 316.9l-17.6 16.7c-1.9 1.8-5 1.8-6.9 0L256 316.9l-17.6 16.7C237.5 334.5 236.2 335 235 335zM256 150c-19.5 0-30-38.6-30-74.9 0-2.7 2.2-4.9 4.9-5 1.8 0 3.5-.1 5.3-.1h39.6c1.8 0 3.5 0 5.3.1 2.7.1 4.9 2.3 4.9 5C286 111.4 275.5 150 256 150zM236.1 80c.9 37 12.1 60 19.9 60 7.8 0 19-23 19.9-60 0 0-.1 0-.1 0h-39.6C236.1 80 236.1 80 236.1 80z"/><path d="M264.2,512h-16.3c-37.7,0-74.6-6.7-109.9-19.9c-40.7-15.2-75.3-42.2-100.1-77.9
				C13.1,378.5,0,336.6,0,293.2c0-48.4,16.7-95.6,47-133.3l-2.4-3.7C15.4,111,0,58.7,0,5c0-1.8,1-3.5,2.5-4.4c1.6-0.9,3.5-0.9,5,0.1
				l16.7,10.1C88.2,49.5,161.5,70,236.2,70h39.6c74.7,0,148-20.5,211.9-59.2l16.7-10.1c1.5-0.9,3.5-1,5-0.1C511,1.5,512,3.2,512,5
				c0,53.7-15.4,106-44.6,151.1l-2.4,3.7c30.4,37.7,47,84.9,47,133.3c0,43.5-13.1,85.3-37.9,121c-24.8,35.7-59.4,62.7-100.1,77.9
				C338.8,505.3,301.8,512,264.2,512z M10.1,14c1.6,48.6,16.3,95.7,42.9,136.7l4.4,6.8c1.2,1.8,1,4.2-0.4,5.9
				c-30.3,36.3-47,82.4-47,129.7c0,84,52.8,160.1,131.5,189.6c34.1,12.8,69.9,19.3,106.4,19.3h16.3c36.5,0,72.2-6.5,106.4-19.3
				C449.2,453.3,502,377.1,502,293.2c0-47.3-16.7-93.4-47-129.7c-1.4-1.7-1.5-4.1-0.4-5.9l4.4-6.8c26.5-41,41.2-88.1,42.9-136.7
				l-9,5.4C427.4,59,352.3,80,275.8,80h-39.6C159.7,80,84.6,59,19.1,19.4L10.1,14z"/><path d="M53.2 165.2c-.1 0-.2 0-.3 0-1.6-.1-3-.9-3.9-2.3l-4.4-6.8C15.4 111 0 58.7 0 5c0-2.2 1.5-4.2 3.6-4.8C5.7-.4 8 .4 9.2 2.3c27.3 41.9 62.4 76.9 104.4 104 1.4.9 2.3 2.5 2.3 4.3 0 1.7-.9 3.3-2.4 4.2-19.9 12.2-37.8 27.3-53.2 44.9-1.1 1.3-2.2 2.6-3.3 3.9C56.1 164.6 54.7 165.2 53.2 165.2zM10.5 21.9c2.9 45.8 17.4 90 42.5 128.8l.8 1.2c14.1-15.9 30.2-29.8 48-41.5C66.1 86.3 35.5 56.6 10.5 21.9zM458.8 165.2c-1.5 0-2.9-.7-3.8-1.8-1.1-1.3-2.2-2.6-3.3-3.9-15.4-17.5-33.3-32.6-53.2-44.9-1.5-.9-2.4-2.5-2.4-4.2 0-1.7.8-3.3 2.3-4.3 42-27.1 77.1-62.1 104.4-104 1.2-1.9 3.5-2.7 5.6-2.1 2.1.6 3.6 2.6 3.6 4.8 0 53.7-15.4 106-44.6 151.1l-4.4 6.8c-.9 1.3-2.3 2.2-3.9 2.3C459 165.2 458.9 165.2 458.8 165.2zM410.3 110.4c17.7 11.7 33.8 25.6 48 41.5l.8-1.2c25.1-38.8 39.6-83 42.5-128.8C476.5 56.6 445.9 86.3 410.3 110.4zM205.8 134c-5.7 0-12-4.8-18.8-14.2-6.8-9.5-13.6-22.8-18.9-37.6-1.4-3.7-2.6-7.5-3.7-11.2l9.6-2.9c1.1 3.5 2.2 7.1 3.5 10.7 11.6 31.8 24.9 45.2 28.3 45.2 0 0 .1 0 .1 0 2.4-1.6 4.4-18.4-5.8-48.6l9.5-3.2c8.5 25.1 13.5 56.2-.3 61.2C208.1 133.8 207 134 205.8 134zM306.2 134c-1.2 0-2.3-.2-3.5-.6-13.8-5-8.8-36.1-.3-61.2l9.5 3.2c-10.2 30.2-8.2 47-5.7 48.6 0 0 .1 0 .1 0 3.3 0 16.7-13.4 28.2-45.2 1.3-3.5 2.4-7 3.5-10.5l9.6 2.9c-1.1 3.7-2.3 7.4-3.7 11.1-5.4 14.8-12.1 28.1-18.9 37.6C318.2 129.3 311.9 134 306.2 134z"/></svg>